<svg width="26" height="26" viewBox="0 0 26 26" fill="none" xmlns="http://www.w3.org/2000/svg">
<path d="M17.1143 12.5429C18.1242 12.5429 18.9429 11.7242 18.9429 10.7143C18.9429 9.70442 18.1242 8.88574 17.1143 8.88574C16.1044 8.88574 15.2857 9.70442 15.2857 10.7143C15.2857 11.7242 16.1044 12.5429 17.1143 12.5429Z" fill="#23CEC9"/>
<path d="M25.8 1.57138C25.8 1.20765 25.6555 0.858826 25.3983 0.601633C25.1411 0.344441 24.7923 0.199951 24.4286 0.199951H8.42857V25.8H24.4286C24.7923 25.8 25.1411 25.6555 25.3983 25.3983C25.6555 25.1411 25.8 24.7922 25.8 24.4285V1.57138ZM17.1143 19.8571C15.7581 19.8571 14.4323 19.4549 13.3047 18.7015C12.177 17.948 11.2981 16.877 10.7791 15.6241C10.2601 14.3711 10.1243 12.9923 10.3889 11.6622C10.6535 10.332 11.3066 9.11021 12.2655 8.15122C13.2245 7.19223 14.4464 6.53915 15.7765 6.27457C17.1067 6.00998 18.4854 6.14578 19.7384 6.66478C20.9914 7.18378 22.0623 8.06268 22.8158 9.19033C23.5693 10.318 23.9714 11.6437 23.9714 13C23.9694 14.8179 23.2463 16.5609 21.9607 17.8464C20.6752 19.1319 18.9323 19.855 17.1143 19.8571Z" fill="#23CEC9"/>
<path d="M17.1143 7.05713C15.9854 7.05594 14.8795 7.37654 13.9263 7.98136C12.9731 8.58617 12.212 9.45015 11.7323 10.472C11.2525 11.4939 11.0739 12.6314 11.2175 13.7511C11.3611 14.8709 11.8208 15.9265 12.5429 16.7943V15.7428C12.544 15.0009 12.8026 14.2823 13.2744 13.7097C13.7463 13.1372 14.4022 12.7461 15.1303 12.6032C14.7594 12.2147 14.5108 11.7259 14.4152 11.1974C14.3196 10.6689 14.3813 10.124 14.5926 9.63025C14.8038 9.13649 15.1554 8.71562 15.6037 8.41984C16.052 8.12406 16.5772 7.96639 17.1143 7.96639C17.6513 7.96639 18.1766 8.12406 18.6249 8.41984C19.0731 8.71562 19.4247 9.13649 19.636 9.63025C19.8473 10.124 19.9089 10.6689 19.8133 11.1974C19.7178 11.7259 19.4691 12.2147 19.0983 12.6032C19.8264 12.7461 20.4823 13.1372 20.9541 13.7097C21.426 14.2823 21.6846 15.0009 21.6857 15.7428V16.7943C22.4078 15.9265 22.8675 14.8709 23.0111 13.7511C23.1546 12.6314 22.9761 11.4939 22.4963 10.472C22.0166 9.45015 21.2555 8.58617 20.3023 7.98136C19.349 7.37654 18.2432 7.05594 17.1143 7.05713Z" fill="#23CEC9"/>
<path d="M18.4857 13.4572H15.7429C15.1369 13.4579 14.5559 13.6989 14.1274 14.1274C13.6989 14.5559 13.4579 15.1369 13.4571 15.7429V17.6748C14.4992 18.4961 15.7874 18.9428 17.1143 18.9428C18.4411 18.9428 19.7294 18.4961 20.7714 17.6748V15.7429C20.7707 15.1369 20.5296 14.5559 20.1012 14.1274C19.6727 13.6989 19.0917 13.4579 18.4857 13.4572Z" fill="#23CEC9"/>
<path d="M4.77143 10.2572C4.77143 10.0147 4.6751 9.78215 4.50364 9.61068C4.33218 9.43922 4.09962 9.3429 3.85714 9.3429H1.11428C0.871799 9.3429 0.639247 9.43922 0.467785 9.61068C0.296323 9.78215 0.199997 10.0147 0.199997 10.2572C0.199997 10.4997 0.296323 10.7322 0.467785 10.9037C0.639247 11.0751 0.871799 11.1715 1.11428 11.1715H3.85714C4.09962 11.1715 4.33218 11.0751 4.50364 10.9037C4.6751 10.7322 4.77143 10.4997 4.77143 10.2572Z" fill="#23CEC9"/>
<path d="M2.94286 1.57138V2.94281H3.85714C4.34211 2.94281 4.80721 3.13546 5.15014 3.47838C5.49306 3.82131 5.68571 4.28641 5.68571 4.77138C5.68571 5.25635 5.49306 5.72145 5.15014 6.06437C4.80721 6.4073 4.34211 6.59995 3.85714 6.59995H2.94286V8.42852H3.85714C4.34211 8.42852 4.80721 8.62118 5.15014 8.9641C5.49306 9.30702 5.68571 9.77213 5.68571 10.2571C5.68571 10.7421 5.49306 11.2072 5.15014 11.5501C4.80721 11.893 4.34211 12.0857 3.85714 12.0857H2.94286V14.3714H3.85714C4.34211 14.3714 4.80721 14.564 5.15014 14.907C5.49306 15.2499 5.68571 15.715 5.68571 16.2C5.68571 16.6849 5.49306 17.15 5.15014 17.4929C4.80721 17.8359 4.34211 18.0285 3.85714 18.0285H2.94286V19.8571H3.85714C4.34211 19.8571 4.80721 20.0497 5.15014 20.3927C5.49306 20.7356 5.68571 21.2007 5.68571 21.6857C5.68571 22.1706 5.49306 22.6357 5.15014 22.9787C4.80721 23.3216 4.34211 23.5142 3.85714 23.5142H2.94286V24.4285C2.94286 24.7922 3.08735 25.1411 3.34454 25.3983C3.60173 25.6555 3.95056 25.8 4.31428 25.8H7.51428V0.199951H4.31428C3.95056 0.199951 3.60173 0.344441 3.34454 0.601633C3.08735 0.858826 2.94286 1.20765 2.94286 1.57138Z" fill="#23CEC9"/>
<path d="M1.11428 5.68575H3.85714C4.09962 5.68575 4.33218 5.58942 4.50364 5.41796C4.6751 5.2465 4.77143 5.01395 4.77143 4.77146C4.77143 4.52898 4.6751 4.29643 4.50364 4.12497C4.33218 3.9535 4.09962 3.85718 3.85714 3.85718H1.11428C0.871799 3.85718 0.639247 3.9535 0.467785 4.12497C0.296323 4.29643 0.199997 4.52898 0.199997 4.77146C0.199997 5.01395 0.296323 5.2465 0.467785 5.41796C0.639247 5.58942 0.871799 5.68575 1.11428 5.68575Z" fill="#23CEC9"/>
<path d="M4.77143 16.2001C4.77143 15.9576 4.6751 15.725 4.50364 15.5536C4.33218 15.3821 4.09962 15.2858 3.85714 15.2858H1.11428C0.871799 15.2858 0.639247 15.3821 0.467785 15.5536C0.296323 15.725 0.199997 15.9576 0.199997 16.2001C0.199997 16.4425 0.296323 16.6751 0.467785 16.8466C0.639247 17.018 0.871799 17.1143 1.11428 17.1143H3.85714C4.09962 17.1143 4.33218 17.018 4.50364 16.8466C4.6751 16.6751 4.77143 16.4425 4.77143 16.2001Z" fill="#23CEC9"/>
<path d="M4.77143 21.6856C4.77143 21.4432 4.6751 21.2106 4.50364 21.0391C4.33218 20.8677 4.09962 20.7714 3.85714 20.7714H1.11428C0.871799 20.7714 0.639247 20.8677 0.467785 21.0391C0.296323 21.2106 0.199997 21.4432 0.199997 21.6856C0.199997 21.9281 0.296323 22.1607 0.467785 22.3321C0.639247 22.5036 0.871799 22.5999 1.11428 22.5999H3.85714C4.09962 22.5999 4.33218 22.5036 4.50364 22.3321C4.6751 22.1607 4.77143 21.9281 4.77143 21.6856Z" fill="#23CEC9"/>
</svg>
