<svg width="26" height="27" viewBox="0 0 26 27" fill="none" xmlns="http://www.w3.org/2000/svg">
<path d="M22.1429 14.5714C22.1429 14.4502 22.0947 14.3339 22.009 14.2482C21.9232 14.1624 21.807 14.1143 21.6857 14.1143H4.31429C4.19305 14.1143 4.07677 14.1624 3.99104 14.2482C3.90531 14.3339 3.85715 14.4502 3.85715 14.5714V23.2571H22.1429V14.5714ZM13 20.5143C12.515 20.5143 12.0499 20.3216 11.707 19.9787C11.3641 19.6358 11.1714 19.1707 11.1714 18.6857C11.1714 18.2007 11.3641 17.7356 11.707 17.3927C12.0499 17.0498 12.515 16.8571 13 16.8571V17.7714C12.8192 17.7714 12.6424 17.825 12.4921 17.9255C12.3417 18.0259 12.2245 18.1687 12.1553 18.3358C12.0861 18.5029 12.068 18.6867 12.1033 18.8641C12.1386 19.0414 12.2256 19.2043 12.3535 19.3322C12.4814 19.4601 12.6443 19.5471 12.8216 19.5824C12.999 19.6177 13.1828 19.5996 13.3499 19.5304C13.517 19.4612 13.6597 19.344 13.7602 19.1936C13.8607 19.0433 13.9143 18.8665 13.9143 18.6857H14.8286C14.8286 19.1707 14.6359 19.6358 14.293 19.9787C13.9501 20.3216 13.485 20.5143 13 20.5143Z" fill="#B84DC5"/>
<path d="M13.1234 4.95316C13.0429 4.97755 12.957 4.97755 12.8766 4.95316L9.19656 3.90173L8.94513 5.88573H17.0548L16.8034 3.90173L13.1234 4.95316Z" fill="#B84DC5"/>
<path d="M2.11085 25.0857C2.05763 24.9391 2.0298 24.7845 2.02857 24.6285V24.1714C2.02929 23.9291 2.12585 23.697 2.29715 23.5257C2.46846 23.3544 2.70059 23.2578 2.94285 23.2571V21.9314C2.60914 21.9997 2.2949 22.1416 2.02312 22.3469C1.75133 22.5523 1.52887 22.8157 1.372 23.1181C1.21513 23.4204 1.12782 23.754 1.11645 24.0944C1.10508 24.4349 1.16993 24.7735 1.30628 25.0857H2.11085Z" fill="#B84DC5"/>
<path d="M0.200012 26H25.8V26.9143H0.200012V26Z" fill="#B84DC5"/>
<path d="M23.9714 24.1714V24.6285C23.9702 24.7845 23.9424 24.9391 23.8892 25.0857H24.6937C24.8189 24.7971 24.8843 24.486 24.8857 24.1714C24.8844 23.6449 24.7019 23.1348 24.3689 22.7269C24.036 22.319 23.5728 22.0381 23.0572 21.9314V23.2571C23.2994 23.2578 23.5316 23.3544 23.7029 23.5257C23.8742 23.697 23.9707 23.9291 23.9714 24.1714Z" fill="#B84DC5"/>
<path d="M23.9714 18.2285C23.9707 17.945 23.8824 17.6687 23.7188 17.4371C23.5552 17.2056 23.3241 17.0302 23.0572 16.9348V21.008C23.3739 21.0534 23.682 21.1458 23.9714 21.2822V18.2285Z" fill="#B84DC5"/>
<path d="M2.94285 16.9348C2.67587 17.0302 2.44481 17.2056 2.28119 17.4371C2.11757 17.6687 2.02935 17.945 2.02856 18.2285V21.2822C2.31797 21.1458 2.62613 21.0534 2.94285 21.008V16.9348Z" fill="#B84DC5"/>
<path d="M2.94284 24.6285C2.94284 24.7498 2.991 24.866 3.07673 24.9518C3.16247 25.0375 3.27874 25.0857 3.39998 25.0857H22.6C22.7212 25.0857 22.8375 25.0375 22.9232 24.9518C23.009 24.866 23.0571 24.7498 23.0571 24.6285V24.1714H2.94284V24.6285Z" fill="#B84DC5"/>
<path d="M10.4263 13.2H15.5691C15.6892 13.1113 15.8023 13.0135 15.9074 12.9075C16.2908 12.5267 16.5948 12.0736 16.802 11.5746C17.0091 11.0755 17.1153 10.5404 17.1143 10V9.08576C17.3568 9.08576 17.5893 8.98944 17.7608 8.81797C17.9323 8.64651 18.0286 8.41396 18.0286 8.17148C18.0286 7.92899 17.9323 7.69644 17.7608 7.52498C17.5893 7.35352 17.3568 7.25719 17.1143 7.25719V6.80005H8.88572V7.25719C8.64324 7.25719 8.41069 7.35352 8.23922 7.52498C8.06776 7.69644 7.97144 7.92899 7.97144 8.17148C7.97144 8.41396 8.06776 8.64651 8.23922 8.81797C8.41069 8.98944 8.64324 9.08576 8.88572 9.08576V10C8.88847 10.6144 9.02817 11.2204 9.29467 11.774C9.56118 12.3276 9.94776 12.8147 10.4263 13.2ZM14.3714 8.62862C14.3714 8.50738 14.4196 8.3911 14.5053 8.30537C14.5911 8.21964 14.7073 8.17148 14.8286 8.17148C14.9498 8.17148 15.0661 8.21964 15.1518 8.30537C15.2376 8.3911 15.2857 8.50738 15.2857 8.62862V9.54291C15.2857 9.66415 15.2376 9.78042 15.1518 9.86616C15.0661 9.95189 14.9498 10 14.8286 10C14.7073 10 14.5911 9.95189 14.5053 9.86616C14.4196 9.78042 14.3714 9.66415 14.3714 9.54291V8.62862ZM10.7143 8.62862C10.7143 8.50738 10.7625 8.3911 10.8482 8.30537C10.9339 8.21964 11.0502 8.17148 11.1714 8.17148C11.2927 8.17148 11.409 8.21964 11.4947 8.30537C11.5804 8.3911 11.6286 8.50738 11.6286 8.62862V9.54291C11.6286 9.66415 11.5804 9.78042 11.4947 9.86616C11.409 9.95189 11.2927 10 11.1714 10C11.0502 10 10.9339 9.95189 10.8482 9.86616C10.7625 9.78042 10.7143 9.66415 10.7143 9.54291V8.62862ZM11.6286 11.3715C11.6286 11.4853 12.115 11.8286 13 11.8286C13.885 11.8286 14.3714 11.4853 14.3714 11.3715H15.2857C15.2857 12.1532 14.3033 12.7429 13 12.7429C11.6967 12.7429 10.7143 12.1532 10.7143 11.3715H11.6286Z" fill="#B84DC5"/>
<path d="M17.5714 2.91431V6.34288H18.4857V2.68574L13 0.400024L7.51428 2.68574L13 4.05717L17.5714 2.91431Z" fill="#B84DC5"/>
</svg>
