<svg width="26" height="26" viewBox="0 0 26 26" fill="none" xmlns="http://www.w3.org/2000/svg">
<path d="M21.6033 21.6035C21.6033 20.6764 22.3549 19.9248 23.282 19.9248H25.8L25.7979 19.0854C25.0329 18.0665 23.8154 17.4067 22.4426 17.4067C21.148 17.4067 19.9926 17.9943 19.2238 18.9163C18.9094 19.2932 18.4406 19.5051 17.9501 19.5051H2.71805C1.55934 19.5051 0.61969 20.4447 0.61969 21.6035C0.61969 22.7622 1.55934 23.7018 2.71805 23.7018H17.9501C18.4406 23.7018 18.9094 23.9138 19.2238 24.2906C19.9926 25.2126 21.148 25.8002 22.4426 25.8002C23.8154 25.8002 25.0329 25.1405 25.7979 24.1215L25.8 23.2821H23.282C22.3549 23.2821 21.6033 22.5305 21.6033 21.6035Z" fill="#F4A45D"/>
<path d="M21.6033 16.6448V14.8884H9.85248V18.6655H17.9501C18.1972 18.6655 18.4268 18.5606 18.5791 18.378C18.7672 18.1526 18.9766 17.952 19.1965 17.7657C18.8859 17.6427 18.6656 17.341 18.6656 16.9868C18.6656 16.5231 19.0412 16.1474 19.5049 16.1474C19.9687 16.1474 20.3443 16.5231 20.3443 16.9868C20.3443 17.0015 20.3409 17.0149 20.3401 17.0292C20.74 16.8449 21.1652 16.719 21.6033 16.6448ZM11.5312 18.2458H10.6918V17.4065H11.5312V18.2458ZM11.5312 16.5671H10.6918V15.7278H11.5312V16.5671ZM16.1476 17.8261C15.6838 17.8261 15.3082 17.4505 15.3082 16.9868C15.3082 16.5231 15.6838 16.1474 16.1476 16.1474C16.6113 16.1474 16.9869 16.5231 16.9869 16.9868C16.9869 17.4505 16.6113 17.8261 16.1476 17.8261Z" fill="#F4A45D"/>
<path d="M2.0982 7.90053C2.17332 8.13554 2.27236 8.37308 2.39365 8.60809L2.50025 8.81457L1.97733 9.69379L3.29636 11.0128L4.176 10.4899L4.3829 10.5973C4.61707 10.7182 4.85461 10.8177 5.0892 10.8928L5.31079 10.9633L5.56217 11.9508H7.42762L7.679 10.9629L7.90059 10.8924C8.13518 10.8172 8.37272 10.7178 8.6069 10.5969L8.81379 10.4895L9.52514 10.9125H9.79331L11.0125 9.69379L10.4895 8.81457L10.5961 8.60809C10.7174 8.37308 10.8165 8.13554 10.8916 7.90053L10.9625 7.67894L11.9508 7.42798V5.56253L10.9629 5.31157L10.892 5.08998C10.8169 4.85497 10.7178 4.61743 10.5966 4.38241L10.49 4.17594L11.0129 3.29672L9.69385 1.97769L8.81421 2.5006L8.60732 2.39317C8.37314 2.2723 8.1356 2.17284 7.90101 2.09772L7.67942 2.02721L7.42804 1.03931H5.56259L5.31121 2.02721L5.0892 2.09772C4.85461 2.17284 4.61707 2.2723 4.3829 2.39317L4.176 2.5006L3.29678 1.97769L1.97775 3.29672L2.50067 4.17594L2.39407 4.38241C2.27278 4.61743 2.17374 4.85497 2.09862 5.08998L2.02728 5.31157L1.03937 5.56211V7.42756L2.02728 7.67852L2.0982 7.90053ZM6.49511 3.13767C8.34922 3.13767 9.85248 4.64093 9.85248 6.49504C9.85248 8.34916 8.34922 9.85242 6.49511 9.85242C4.64099 9.85242 3.13773 8.34916 3.13773 6.49504C3.13773 4.64093 4.64099 3.13767 6.49511 3.13767Z" fill="#F4A45D"/>
<path d="M21.6033 9.85254H12.0402L9.85248 12.0403V14.0493H21.6033V9.85254ZM11.9508 12.7902C11.4871 12.7902 11.1115 12.4146 11.1115 11.9509C11.1115 11.4872 11.4871 11.1116 11.9508 11.1116C12.4146 11.1116 12.7902 11.4872 12.7902 11.9509C12.7902 12.4146 12.4146 12.7902 11.9508 12.7902ZM15.3082 12.7902C14.8445 12.7902 14.4689 12.4146 14.4689 11.9509C14.4689 11.4872 14.8445 11.1116 15.3082 11.1116C15.772 11.1116 16.1476 11.4872 16.1476 11.9509C16.1476 12.4146 15.772 12.7902 15.3082 12.7902ZM20.764 13.2099H19.9246V12.3706H20.764V13.2099ZM20.764 11.5312H19.9246V10.6919H20.764V11.5312Z" fill="#F4A45D"/>
<path d="M12.7901 8.0802L11.6142 8.37942C11.5643 8.51288 11.5085 8.64759 11.4464 8.78063L11.5844 9.01313H21.6033V5.23608C21.6033 5.00442 21.4148 4.81641 21.1836 4.81641H12.4229L12.7901 4.90999V8.0802ZM19.5049 6.07542C19.9686 6.07542 20.3442 6.45103 20.3442 6.91477C20.3442 7.3785 19.9686 7.75411 19.5049 7.75411C19.0412 7.75411 18.6655 7.3785 18.6655 6.91477C18.6655 6.45103 19.0412 6.07542 19.5049 6.07542ZM16.1475 6.07542C16.6113 6.07542 16.9869 6.45103 16.9869 6.91477C16.9869 7.3785 16.6113 7.75411 16.1475 7.75411C15.6838 7.75411 15.3082 7.3785 15.3082 6.91477C15.3082 6.45103 15.6838 6.07542 16.1475 6.07542Z" fill="#F4A45D"/>
<path d="M6.49506 8.17378C7.42218 8.17378 8.17375 7.42221 8.17375 6.49509C8.17375 5.56798 7.42218 4.81641 6.49506 4.81641C5.56795 4.81641 4.81638 5.56798 4.81638 6.49509C4.81638 7.42221 5.56795 8.17378 6.49506 8.17378Z" fill="#F4A45D"/>
<path d="M3.55739 15.728C2.86325 15.728 2.29837 16.2929 2.29837 16.987C2.29837 17.6812 2.86325 18.2461 3.55739 18.2461C4.1038 18.2461 4.56544 17.894 4.73918 17.4067H9.01312V16.5674H4.73918C4.56544 16.0801 4.1038 15.728 3.55739 15.728Z" fill="#F4A45D"/>
<path d="M2.64083 14.469H9.01313V13.6296H2.64083C2.46708 13.1424 2.00544 12.7903 1.45903 12.7903C0.764891 12.7903 0.200012 13.3552 0.200012 14.0493C0.200012 14.7434 0.764891 15.3083 1.45903 15.3083C2.00544 15.3083 2.46708 14.9562 2.64083 14.469Z" fill="#F4A45D"/>
<path d="M19.5049 2.64076V3.977H20.3443V2.64076C20.8315 2.46702 21.1836 2.00538 21.1836 1.45897C21.1836 0.76483 20.6187 0.199951 19.9246 0.199951C19.2305 0.199951 18.6656 0.76483 18.6656 1.45897C18.6656 2.00538 19.0177 2.46702 19.5049 2.64076Z" fill="#F4A45D"/>
<path d="M15.3082 2.64076V3.977H16.1475V2.64076C16.6348 2.46702 16.9869 2.00538 16.9869 1.45897C16.9869 0.76483 16.422 0.199951 15.7279 0.199951C15.0337 0.199951 14.4688 0.76483 14.4688 1.45897C14.4688 2.00538 14.8209 2.46702 15.3082 2.64076Z" fill="#F4A45D"/>
</svg>
