<svg width="26" height="19" viewBox="0 0 26 19" fill="none" xmlns="http://www.w3.org/2000/svg">
<path d="M25.05 17.3H24.25V1.44995C24.25 1.0355 23.9145 0.699951 23.5 0.699951H20.5C20.0856 0.699951 19.75 1.0355 19.75 1.44995V17.3H18.25V5.94995C18.25 5.5355 17.9145 5.19995 17.5 5.19995H14.5C14.0856 5.19995 13.75 5.5355 13.75 5.94995V17.3H12.25V11.95C12.25 11.5355 11.9145 11.2 11.5 11.2H8.50001C8.08556 11.2 7.75001 11.5355 7.75001 11.95V17.3H6.25001V8.94995C6.25001 8.5355 5.91447 8.19995 5.50001 8.19995H2.50001C2.08556 8.19995 1.75001 8.5355 1.75001 8.94995V17.3H0.950012C0.535559 17.3 0.200012 17.6355 0.200012 18.05C0.200012 18.4644 0.535559 18.8 0.950012 18.8H25.05C25.4645 18.8 25.8 18.4644 25.8 18.05C25.8 17.6355 25.4645 17.3 25.05 17.3Z" fill="#F49C4E"/>
</svg>
